<svg
  xmlns="http://www.w3.org/2000/svg"
  xmlns:xlink="http://www.w3.org/1999/xlink"
  version="1.1"
  width="80px"
  height="100px"
  x="0px"
  y="0px"
  viewBox="0 0 512 512"
  enableBackground="new 0 0 512 512"
  xmlSpace="preserve"
  fill="currentColor"
>
  <g>
    <g>
      <g>
        <path d="M400,119h-80c-1.657,0-3-1.343-3-3V36c0-1.657,1.343-3,3-3s3,1.343,3,3v77h77c1.657,0,3,1.343,3,3S401.657,119,400,119z" />
      </g>
      <g>
        <path d="M50,479c-1.657,0-3-1.343-3-3V36c0-1.657,1.343-3,3-3s3,1.343,3,3v440C53,477.657,51.657,479,50,479z" />
      </g>
      <g>
        <path d="M246.053,379c-0.576,0-1.149-0.165-1.648-0.493l-96.053-63.158c-0.844-0.555-1.352-1.497-1.352-2.507V199.158     c0-1.103,0.605-2.117,1.576-2.641c0.971-0.523,2.15-0.471,3.072,0.134l96.053,63.156c0.844,0.555,1.352,1.497,1.352,2.507V376     c0,1.103-0.605,2.117-1.576,2.641C247.032,378.881,246.542,379,246.053,379z M153,311.224l90.053,59.213V263.933L153,204.721     V311.224z" />
      </g>
      <g>
        <path d="M246.053,379c-0.483,0-0.968-0.116-1.411-0.353c-0.978-0.521-1.589-1.539-1.589-2.647V262.314     c0-0.999,0.497-1.933,1.326-2.489l93.947-63.157c0.92-0.619,2.105-0.679,3.084-0.158c0.979,0.521,1.59,1.54,1.59,2.648v113.684     c0,0.999-0.497,1.933-1.326,2.489l-93.947,63.158C247.223,378.828,246.639,379,246.053,379z M249.053,263.912v106.456     L337,311.244V204.79L249.053,263.912z" />
      </g>
      <g>
        <path d="M246.053,265.314c-0.574,0-1.148-0.164-1.648-0.493l-96.053-63.156c-0.844-0.555-1.352-1.497-1.352-2.507     s0.508-1.952,1.352-2.507l96.053-63.158c1.01-0.663,2.319-0.657,3.322,0.017l93.947,63.158c0.829,0.558,1.326,1.491,1.326,2.49     s-0.497,1.932-1.326,2.49l-93.947,63.156C247.221,265.145,246.637,265.314,246.053,265.314z M155.46,199.158l90.574,59.554     l88.588-59.554l-88.588-59.556L155.46,199.158z" />
      </g>
      <g>
        <path d="M246.053,219c-1.657,0-3-1.343-3-3v-80c0-1.657,1.343-3,3-3s3,1.343,3,3v80C249.053,217.657,247.71,219,246.053,219z" />
      </g>
      <g>
        <path d="M400,479H90c-1.657,0-3-1.343-3-3V36c0-1.657,1.343-3,3-3h230c0.796,0,1.559,0.316,2.121,0.879l80,80     c0.563,0.563,0.879,1.325,0.879,2.121v290c0,1.657-1.343,3-3,3H200c-9.374,0-17,7.626-17,17s7.626,17,17,17h200     c1.657,0,3,1.343,3,3v30C403,477.657,401.657,479,400,479z M93,473h304v-24H200c-12.682,0-23-10.317-23-23s10.318-23,23-23h197     V117.243L318.758,39H93V473z" />
      </g>
      <g>
        <path d="M440,449H200c-12.682,0-23-10.317-23-23s10.318-23,23-23h240c1.657,0,3,1.343,3,3v40C443,447.657,441.657,449,440,449z      M200,409c-9.374,0-17,7.626-17,17s7.626,17,17,17h237v-34H200z" />
      </g>
      <g>
        <path d="M440,449c-0.591,0-1.178-0.175-1.682-0.516C437.494,447.926,437,446.995,437,446v-40c0-0.995,0.494-1.926,1.318-2.484     c0.825-0.558,1.873-0.671,2.796-0.301l50,20C492.253,423.67,493,424.773,493,426s-0.747,2.33-1.886,2.785l-50,20     C440.755,448.93,440.377,449,440,449z M443,410.431v31.139L481.922,426L443,410.431z" />
      </g>
      <g>
        <path d="M220,79h-90c-1.657,0-3-1.343-3-3s1.343-3,3-3h90c1.657,0,3,1.343,3,3S221.657,79,220,79z" />
      </g>
      <g>
        <path d="M190,109h-60c-1.657,0-3-1.343-3-3s1.343-3,3-3h60c1.657,0,3,1.343,3,3S191.657,109,190,109z" />
      </g>
      <g>
        <path d="M450,339c-1.657,0-3-1.343-3-3V59h-57c-1.657,0-3-1.343-3-3s1.343-3,3-3h60c1.657,0,3,1.343,3,3v280     C453,337.657,451.657,339,450,339z" />
      </g>
    </g>
  </g>
</svg>
